<?xml version="1.0" encoding="utf-8"?>
<!-- Generator: Adobe Illustrator 23.0.3, SVG Export Plug-In . SVG Version: 6.00 Build 0)  -->
<svg version="1.2" baseProfile="tiny" id="Layer_1" xmlns="http://www.w3.org/2000/svg" xmlns:xlink="http://www.w3.org/1999/xlink"
	 x="0px" y="0px" viewBox="0 0 308.71 144.87" xml:space="preserve">
<g>
	<path fill="#2998CE" d="M272.29,111.49c-5.36,1.22-10.2,0.25-10.75-2.16s3.39-5.39,8.75-6.61l19.67-4.49
		c5.36-1.22,9.75-6.73,9.75-12.23V42.56c0-5.5-4.44-10.75-9.86-11.67L165.66,9.83c-5.42-0.92-14.3-0.93-19.72-0.03L18.86,30.93
		C13.44,31.84,9,37.07,9,42.57V86c0,5.5,4.39,11,9.75,12.23l19.67,4.49c5.36,1.22,9.3,4.2,8.75,6.61
		c-0.55,2.41-5.39,3.39-10.75,2.16L9.75,105.4C4.39,104.18,0,98.68,0,93.18V34.95c0-5.5,4.44-10.74,9.86-11.64L145.95,0.67
		c5.43-0.9,14.3-0.89,19.72,0.03l133.17,22.59c5.42,0.92,9.86,6.17,9.86,11.67v58.22c0,5.5-4.39,11-9.75,12.23L272.29,111.49z"/>
	<g>
		<path fill="#2998CE" d="M75.65,36.48c0,0.28-0.26,0.48-0.77,0.62c-1.54,0.37-2.51,0.74-2.93,1.12s-0.87,1.33-1.39,2.88
			c-0.31,0.85-0.77,2.15-1.38,3.89c-0.45,1.43-1.15,3.64-2.1,6.62c-0.48,1.4-1.21,3.53-2.17,6.37l-2.53,7.58
			c-1.76,5.35-2.74,8.43-2.94,9.23c-0.14,0.48-0.29,0.73-0.46,0.76c-0.21,0.04-0.38-0.09-0.51-0.39c-0.14-0.3-0.53-1.4-1.18-3.31
			c-0.86-2.52-2.11-5.62-3.75-9.3l-1.75-3.9c-3.42,8.05-5.87,14.39-7.38,19.03c-0.17,0.52-0.36,0.79-0.56,0.83
			c-0.14,0.03-0.57-0.8-1.28-2.5l-6.27-15.25c-1.51-3.85-3.44-8.41-5.8-13.68c-0.24-0.57-0.63-0.88-1.18-0.91
			c-0.31-0.04-0.91,0.02-1.8,0.2c-0.89,0.17-1.33,0.11-1.33-0.21c0-0.28,0.24-0.46,0.72-0.56c-0.03,0.01,0.53-0.1,1.69-0.33
			c1.2-0.23,2.22-0.44,3.08-0.6l1.95-0.38l5.18-1.01c0.17-0.03,0.46-0.09,0.87-0.17c0.34-0.07,0.58-0.11,0.72-0.14
			c0.44-0.09,0.67,0.04,0.67,0.38c0,0.31-0.55,0.55-1.64,0.73c-0.58,0.11-0.87,0.32-0.87,0.63c0,0.14,0.03,0.28,0.1,0.44
			c0.75,1.94,1.9,4.84,3.43,8.68l5.28,12.64l3.59-8.99c-0.5-1.41-1.48-3.93-2.92-7.55c-0.28-0.56-0.65-1.42-1.14-2.58
			c-0.1-0.29-0.28-0.73-0.52-1.33c-0.59-1.45-1.07-2.3-1.45-2.55c-0.38-0.25-1.17-0.26-2.37-0.02c-0.34,0.03-0.52-0.09-0.52-0.36
			c0-0.31,0.32-0.52,0.98-0.65c-0.1,0.02,0.08-0.02,0.54-0.11c0.46-0.09,1.22-0.24,2.28-0.45l17.91-3.51
			c0.65-0.16,0.98-0.07,0.98,0.27c0,0.27-0.26,0.46-0.77,0.56c-2.43,0.44-3.83,1.13-4.21,2.06c-0.58,1.04-1.8,3.9-3.64,8.59
			c1.19,2.87,3.08,7.4,5.69,13.61c0.55-1.52,1.14-3.2,1.76-5.05c0.55-1.55,1.45-4.19,2.68-7.92c0.79-2.46,1.46-4.47,2.01-6.03
			c0.93-2.63,1.39-4.31,1.39-5.03c0-0.69-0.34-1.05-1.03-1.09c-0.24-0.02-0.86,0.06-1.85,0.26c-0.55,0.11-0.82,0.02-0.82-0.25
			c0-0.28,0.26-0.46,0.77-0.56l4.06-0.79c1.75-0.31,3.06-0.56,3.95-0.77l0.41-0.08C75.47,36.1,75.64,36.2,75.65,36.48z M58.04,41.78
			c0-0.93-0.82-1.23-2.46-0.91c-1.68,0.33-2.51,0.8-2.51,1.42c0,0.86,0.82,2.89,2.47,6.09C57.2,44.56,58.04,42.36,58.04,41.78z"/>
		<path fill="#2998CE" d="M109.32,56.17c0,0.07-0.02,1.68-0.05,4.82c-0.03,1.66-0.06,2.86-0.08,3.59c-0.02,0.73-0.03,1.07-0.03,1.04
			c-9.03,1.35-16.94,2.78-23.71,4.28l-4.31,0.84c-0.62,0.12-0.92,0.05-0.92-0.21c0-0.19,0.08-0.32,0.23-0.39
			c0.15-0.06,0.68-0.21,1.57-0.45c1.61-0.42,2.48-1.05,2.62-1.91c0.07-0.46,0.1-0.97,0.1-1.52l-0.01-26.19c0-2.07-0.02-3.2-0.05-3.4
			c-0.03-0.54-0.21-0.89-0.51-1.04c-0.31-0.15-0.94-0.13-1.9,0.06c-1.06,0.21-1.59,0.16-1.59-0.15c0-0.34,0.47-0.61,1.41-0.79
			c0.94-0.18,2.25-0.46,3.93-0.82c6.29-1.37,11.45-2.41,15.45-3.13l3.49-0.68c0.75-0.15,1.68-0.38,2.77-0.7l0.46,5.55
			c0.17,1.76,0.26,2.85,0.26,3.26c0,0.35-0.17,0.55-0.51,0.62c-0.34,0.07-0.57-0.34-0.67-1.21c-0.31-2.32-1.26-3.87-2.86-4.64
			c-1.6-0.77-3.96-0.86-7.08-0.24c-0.96,0.19-2.61,0.56-4.94,1.12l0,15.26c3.78-0.71,6.16-1.44,7.14-2.2
			c0.98-0.76,1.64-2.36,1.98-4.81c0.17-1.31,0.43-2,0.77-2.07c0.31-0.06,0.46,0.22,0.46,0.84c0,0.62-0.05,1.91-0.15,3.86
			c-0.03,0.66-0.05,1.54-0.05,2.65c0,2.97,0.04,5.2,0.1,6.71c0.03,0.2,0.05,0.46,0.05,0.77c0,0.41-0.15,0.65-0.46,0.71
			c-0.24,0.05-0.4,0-0.46-0.14c-0.07-0.14-0.17-0.68-0.31-1.62c-0.34-2.38-0.82-3.81-1.42-4.3c-0.6-0.49-1.99-0.52-4.15-0.09
			l-3.51,0.69l0.01,17.38l3.29-0.64c3.78-0.81,6.08-1.34,6.9-1.61c1.03-0.34,2.02-0.91,2.99-1.72c0.86-0.86,1.45-1.71,1.78-2.57
			c0.32-0.86,0.68-2.39,1.05-4.6c0.1-0.54,0.27-0.83,0.51-0.88C109.18,55.42,109.32,55.65,109.32,56.17z"/>
		<path fill="#2998CE" d="M146.17,48.67c0,2.15-0.65,4.11-1.95,5.91c-1.3,1.79-3.1,3.18-5.39,4.14c-1.81,0.77-3.52,1.35-5.13,1.73
			c-1.61,0.38-6.33,1.34-14.17,2.88c-1.1,0.21-1.75,0.32-1.95,0.33c-0.21,0.01-0.31-0.1-0.31-0.3c0-0.31,0.56-0.58,1.67-0.79
			c1.11-0.22,1.8-0.52,2.08-0.9c0.27-0.38,0.41-1.21,0.41-2.49l-0.01-29.64c0-1-0.8-1.36-2.39-1.09c-1.21,0.21-1.82,0.18-1.82-0.08
			c0-0.29,0.38-0.51,1.13-0.66c0.72-0.14,1.42-0.28,2.1-0.41l12.32-2.41c7.9-1.55,11.86,0.41,11.86,5.88
			c0,4.53-2.94,7.91-8.82,10.13l-0.1,0.23c3.46,0.05,5.85,0.5,7.19,1.34C145.07,43.87,146.17,45.94,146.17,48.67z M137.96,50.05
			c0-4.86-1.37-7.42-4.11-7.68c-1.08-0.1-2.64,0.05-4.67,0.45l0,3c0,0.86-0.03,2.09-0.1,3.69c-0.03,0.8-0.05,2.29-0.05,4.46
			c0,3.73,0.1,5.69,0.31,5.89c0.27,0.33,1.04,0.37,2.31,0.12C135.86,59.15,137.96,55.84,137.96,50.05z M136.98,32.55
			c0-5-1.51-7.21-4.53-6.61c-1.07,0.21-1.79,0.4-2.16,0.58c-0.74,0.39-1.11,0.99-1.11,1.82l0,13.66c2.99-0.58,5.03-1.52,6.14-2.81
			C136.43,37.9,136.98,35.68,136.98,32.55z"/>
	</g>
	<g>
		<path fill="#2998CE" d="M185.25,25.83c0,0.27-0.2,0.36-0.61,0.26l-0.05-0.01c-0.34-0.08-0.77-0.19-1.28-0.31
			c-1.12-0.28-1.79-0.22-1.99,0.18c-0.1,0.15-0.15,1.12-0.15,2.92v22.92c0,3.81-0.15,6.26-0.46,7.34c-0.48,1.65-1.97,3.02-4.49,4.11
			c-2.01,0.87-4,1.06-5.97,0.58c-1.6-0.39-2.89-1.12-3.88-2.18c-0.99-1.06-1.48-2.25-1.48-3.58c0-1.02,0.33-1.78,1-2.28
			c0.66-0.5,1.51-0.63,2.53-0.38c0.88,0.22,1.62,0.69,2.22,1.41c0.6,0.72,0.89,1.53,0.89,2.41c0,0.88-0.36,1.72-1.07,2.49
			c-0.2,0.22-0.31,0.44-0.31,0.64c0,0.37,0.3,0.64,0.91,0.78c1.51,0.37,2.35-0.8,2.52-3.52c0.07-0.53,0.1-4.35,0.1-11.46V27.39
			c0-0.54,0-1.09,0-1.63l-0.05-0.83c-0.07-0.6-0.31-1.04-0.71-1.32c-0.41-0.29-1.23-0.6-2.45-0.93c-0.78-0.23-1.24-0.37-1.38-0.44
			c-0.14-0.07-0.2-0.2-0.2-0.41c0-0.31,0.25-0.4,0.77-0.27l6.38,1.56c-0.03-0.01,0.66,0.16,2.09,0.51c1.56,0.38,3.16,0.78,4.8,1.18
			l1.48,0.36C184.96,25.31,185.25,25.53,185.25,25.83z"/>
		<path fill="#2998CE" d="M221.19,60.57c0,0.07-0.02,1.65-0.05,4.74c-0.03,1.63-0.06,2.79-0.08,3.5c-0.02,0.71-0.03,1.05-0.03,1.01
			c-8.98-2.61-16.85-4.65-23.58-6.14l-4.29-1.05c-0.61-0.15-0.92-0.35-0.92-0.61c0-0.19,0.08-0.29,0.23-0.28
			c0.15,0.01,0.67,0.08,1.56,0.24c1.6,0.29,2.47,0.04,2.6-0.74c0.07-0.42,0.1-0.91,0.1-1.45V33.95c0-2.04-0.02-3.16-0.05-3.38
			c-0.03-0.55-0.2-0.97-0.51-1.25c-0.31-0.28-0.94-0.54-1.89-0.77c-1.06-0.26-1.58-0.54-1.58-0.85c0-0.34,0.47-0.4,1.4-0.17
			c0.94,0.23,2.24,0.53,3.91,0.91c6.26,1.4,11.38,2.62,15.37,3.66l3.47,0.85c0.75,0.18,1.67,0.36,2.76,0.52l0.46,5.68
			c0.17,1.81,0.25,2.92,0.25,3.33c0,0.34-0.17,0.47-0.51,0.39c-0.34-0.08-0.56-0.58-0.67-1.49c-0.31-2.42-1.26-4.37-2.84-5.83
			c-1.59-1.46-3.93-2.57-7.04-3.33c-0.96-0.23-2.6-0.58-4.92-1.05v15.06c3.76,0.96,6.13,1.27,7.1,0.95
			c0.97-0.32,1.63-1.62,1.98-3.88c0.17-1.22,0.43-1.78,0.77-1.7c0.31,0.08,0.46,0.42,0.46,1.03c0,0.61-0.05,1.86-0.15,3.74
			c-0.03,0.64-0.05,1.5-0.05,2.59c0,2.93,0.03,5.15,0.1,6.66c0.03,0.21,0.05,0.47,0.05,0.78c0,0.41-0.15,0.58-0.46,0.5
			c-0.24-0.06-0.39-0.17-0.46-0.34c-0.07-0.17-0.17-0.75-0.31-1.73c-0.34-2.5-0.81-4.12-1.41-4.86c-0.6-0.74-1.97-1.38-4.13-1.91
			l-3.49-0.85v17.15l3.28,0.8c3.76,0.85,6.04,1.33,6.86,1.43c1.02,0.12,2.01-0.02,2.97-0.4c0.85-0.47,1.44-1.06,1.77-1.76
			c0.32-0.7,0.67-2.06,1.05-4.08c0.1-0.49,0.27-0.7,0.51-0.64C221.05,59.77,221.19,60.06,221.19,60.57z"/>
		<path fill="#2998CE" d="M258.7,52.87c0,0.27-0.12,0.38-0.36,0.32c-0.38-0.09-0.72-0.83-1.02-2.22c-0.61-2.74-1.46-4.71-2.55-5.92
			c-1.09-1.21-2.83-2.1-5.21-2.69c-0.92-0.23-1.72-0.42-2.4-0.59v31.04c0.03,0.86,0.28,1.46,0.72,1.81c0.45,0.35,1.65,0.85,3.61,1.5
			c0.38,0.13,0.57,0.33,0.57,0.6c0,0.34-0.27,0.44-0.82,0.31c-0.1-0.02-0.36-0.11-0.77-0.24c-0.51-0.16-0.94-0.28-1.28-0.36
			l-5.26-1.44l-8.68-1.87c-0.48-0.12-0.71-0.31-0.71-0.58c0-0.2,0.07-0.31,0.2-0.31c0.14,0,0.7,0.1,1.68,0.31
			c1.87,0.39,2.88,0.19,3.01-0.59c0.07-0.43,0.1-3.88,0.1-10.37V39.91c-0.38-0.09-0.82-0.2-1.33-0.33c-2.72-0.67-4.7-0.65-5.95,0.04
			c-1.24,0.69-2.05,2.26-2.42,4.71c-0.24,1.43-0.54,2.1-0.92,2.01c-0.31-0.07-0.46-0.32-0.46-0.72c0-0.27,0.07-1.19,0.2-2.76
			c0.27-3.27,0.44-5.51,0.51-6.72l0.77,0.19l3.73,0.91c0.1,0.02,1.28,0.34,3.55,0.95c2.26,0.61,5.15,1.34,8.65,2.2
			c1.94,0.48,3.68,0.89,5.21,1.24c1.53,0.35,2.93,0.68,4.19,0.99c1.12,0.28,1.97,0.46,2.55,0.55c0.1,2.23,0.36,5.1,0.77,8.62
			C258.67,52.37,258.7,52.74,258.7,52.87z"/>
	</g>
	<g>
		<path fill="#2998CE" d="M159.14,101.62c0.63-0.56,0.94-1.31,0.94-2.25c0-0.82-0.24-1.52-0.73-2.09c-0.48-0.57-1.15-0.86-2.01-0.86
			c-1.54,0.05-2.72,0.83-3.54,2.35c-0.38,0.68-0.66,1.51-0.83,2.5c0.97,0.76,2.25,1.16,3.85,1.19
			C157.74,102.47,158.52,102.19,159.14,101.62z"/>
		<path fill="#2998CE" d="M243.56,90.55L164.16,74.6c-5.39-1.08-14.22-1.08-19.61,0L65.14,90.55c-5.39,1.08-9.8,6.47-9.8,11.97
			v16.17c0,5.5,4.43,10.77,9.85,11.71l79.31,13.76c5.42,0.94,14.29,0.94,19.71,0l79.31-13.76c5.42-0.94,9.85-6.21,9.85-11.71v-16.17
			C253.37,97.02,248.96,91.64,243.56,90.55z M102.34,92.57c0.48-0.6,1.16-0.9,2.05-0.9c0.82,0,1.45,0.26,1.87,0.78
			c0.42,0.52,0.63,1.09,0.63,1.71c0,0.84-0.23,1.57-0.7,2.2c-0.47,0.63-1.15,0.94-2.06,0.94c-0.57,0-1.04-0.13-1.4-0.38
			c-0.36-0.25-0.64-0.58-0.82-0.98c-0.18-0.4-0.27-0.8-0.27-1.21C101.62,93.9,101.86,93.18,102.34,92.57z M238.16,101.97
			c-0.46,0.81-0.98,1.79-1.57,2.95c-0.67,1.3-1.41,2.68-2.24,4.14c-0.82,1.46-1.72,2.83-2.69,4.13c-0.97,1.29-2.01,2.35-3.12,3.17
			c-1.11,0.82-2.28,1.24-3.5,1.24c-0.84,0-1.57-0.18-2.19-0.54c-0.62-0.36-1.15-0.84-1.58-1.46c-0.44-0.62-0.8-1.31-1.08-2.07
			c-0.46-1.24-0.78-2.51-0.98-3.83c-0.19-1.32-0.32-2.48-0.38-3.5c-0.03,0.14-0.06,0.31-0.1,0.5c-0.13,0.59-0.29,1.26-0.5,2.02
			c-0.21,0.76-0.47,1.51-0.8,2.24s-0.73,1.34-1.21,1.82c-0.48,0.48-1.07,0.73-1.77,0.73c-0.79,0-1.45-0.23-1.97-0.7
			s-0.94-1.06-1.24-1.78c-0.3-0.72-0.52-1.47-0.64-2.26c-0.13-0.78-0.19-1.49-0.19-2.1c0-0.23,0.02-0.46,0.03-0.69
			c-0.31,0.7-0.63,1.47-0.98,2.31c-1.28,3.16-2.73,6.41-4.35,9.77c-1.62,3.36-3.24,5.93-4.88,7.71c-0.6,0.62-1.26,1.12-1.96,1.5
			c-0.71,0.38-1.4,0.57-2.08,0.57c-0.59,0-1.13-0.2-1.64-0.61c-0.51-0.4-0.92-1.05-1.24-1.94c-0.4-1.28-0.6-2.94-0.62-4.97v-1.55
			c0-1.55,0.03-3.15,0.1-4.78c0.08-1.76,0.12-3.4,0.12-4.92c0-1.51-0.1-2.73-0.31-3.67c-0.21-0.94-0.59-1.42-1.17-1.42
			c-0.36,0-0.68,0.31-0.94,0.92s-0.48,1.35-0.64,2.21c-0.17,0.86-0.3,1.7-0.39,2.52c-0.1,0.82-0.17,1.45-0.21,1.91
			c-0.02,0.16-0.06,0.42-0.12,0.78c-0.06,0.36-0.18,0.68-0.34,0.95c-0.17,0.27-0.42,0.41-0.75,0.43c-0.62,0-1.08-0.28-1.39-0.83
			c-0.31-0.55-0.53-1.17-0.65-1.84c-0.13-0.67-0.21-1.26-0.24-1.75c-0.03-0.38-0.12-1.09-0.26-2.13s-0.34-2.16-0.58-3.35
			s-0.55-2.24-0.92-3.13c-0.36-0.89-0.78-1.33-1.26-1.33c-0.25,0-0.48,0.43-0.67,1.3s-0.34,1.89-0.46,3.07
			c-0.12,1.18-0.21,2.3-0.27,3.37s-0.11,1.83-0.13,2.29c-0.02,0.47-0.04,0.84-0.06,1.13c-0.08,2.12-0.25,4.36-0.5,6.71
			c-0.03,0.27-0.15,0.5-0.36,0.69c-0.21,0.19-0.46,0.29-0.76,0.29c-0.57,0-1.05-0.25-1.45-0.76c-0.4-0.51-0.73-1.13-0.99-1.85
			s-0.46-1.45-0.61-2.16s-0.24-1.3-0.29-1.76c-0.44-2.83-0.72-5.68-0.86-8.52c-1.25,1.71-3.22,3.84-5.93,6.39
			c-3.34,3.15-6.73,4.72-10.19,4.72c-3.12,0-5.53-0.87-7.23-2.6c-1.7-1.74-2.54-4.1-2.54-7.1c0-0.09,0.01-0.18,0.01-0.27
			c-0.3,0.6-0.61,1.24-0.96,1.98c-1.09,2.35-2.35,4.84-3.76,7.47c-1.41,2.63-2.88,4.78-4.4,6.44c-0.71,0.78-1.47,1.4-2.26,1.88
			s-1.7,0.71-2.73,0.71c-0.79,0-1.51-0.27-2.15-0.82c-0.64-0.55-1.13-1.43-1.46-2.65c-0.27-1.08-0.42-2.33-0.45-3.76
			c-0.02-0.71-0.02-1.43-0.02-2.16s0.01-1.47,0.02-2.21c0.02-0.78,0.02-1.53,0.02-2.26v-1.09c-0.02-1.06-0.08-2.01-0.2-2.85
			c-0.12-0.84-0.34-1.51-0.65-2c-0.32-0.49-0.76-0.74-1.33-0.74c-0.51,0-0.96,0.38-1.34,1.14c-0.39,0.76-0.73,1.71-1.02,2.84
			c-0.29,1.13-0.54,2.28-0.75,3.44c-0.21,1.16-0.37,2.16-0.5,3c-0.08,0.54-0.14,0.95-0.19,1.24c-0.14,0.67-0.38,1.13-0.71,1.4
			s-0.69,0.41-1.07,0.43c-0.73,0-1.3-0.42-1.7-1.25c-0.4-0.83-0.68-1.58-0.82-2.25c-0.38-1.47-0.67-3.21-0.88-5.21
			c-0.13-1.2-0.22-2.3-0.26-3.33c-0.51,1.07-1.07,2.34-1.71,3.87c-0.75,1.74-1.56,3.57-2.44,5.47s-1.82,3.69-2.81,5.36
			c-0.99,1.67-2.03,3.04-3.1,4.1s-2.19,1.59-3.33,1.59c-1,0-1.83-0.41-2.49-1.22c-0.66-0.82-1.19-1.9-1.58-3.26
			c-0.4-1.36-0.68-2.86-0.86-4.51c-0.17-1.65-0.27-3.31-0.29-4.99v-0.71c0-1.41,0.04-2.74,0.12-4c0.03-0.55,0.07-1.06,0.1-1.54
			c-0.67,1.17-1.39,2.37-2.16,3.63c-0.88,1.42-1.84,2.81-2.87,4.16c-1.03,1.36-2.14,2.58-3.32,3.67c-1.18,1.09-2.45,1.97-3.82,2.62
			c-1.36,0.65-2.83,0.98-4.4,0.98c-1.63,0-3.04-0.34-4.23-1.01s-2.17-1.59-2.94-2.73c-0.77-1.15-1.34-2.46-1.7-3.92
			c-0.36-1.47-0.55-2.99-0.55-4.58c0-1.3,0.21-2.63,0.63-4c0.42-1.36,1.02-2.62,1.8-3.76c0.78-1.14,1.7-2.07,2.77-2.78
			S82.96,95,84.26,95c0.73,0,1.32,0.18,1.78,0.54s0.8,0.82,1.01,1.38c0.21,0.56,0.32,1.16,0.32,1.8c0,0.89-0.19,1.74-0.57,2.57
			c-0.05,0.13-0.13,0.21-0.26,0.24c-0.05,0.02-0.1,0.02-0.17,0.02s-0.13-0.01-0.19-0.02c-0.11-0.06-0.19-0.16-0.24-0.29
			c-0.02-0.05-0.02-0.1-0.02-0.14c0-0.06,0.02-0.13,0.05-0.21c0.3-0.79,0.45-1.62,0.45-2.47c0-0.65-0.18-1.22-0.54-1.71
			c-0.36-0.49-0.9-0.74-1.63-0.74c-0.89,0-1.73,0.61-2.53,1.82c-0.8,1.21-1.45,2.7-1.95,4.46c-0.5,1.76-0.75,3.46-0.75,5.09
			c0,1.19,0.12,2.38,0.37,3.58c0.25,1.2,0.64,2.29,1.19,3.28c0.55,0.99,1.27,1.79,2.16,2.39c0.9,0.6,1.98,0.9,3.25,0.9
			c1.32,0,2.56-0.31,3.75-0.94c1.18-0.63,2.3-1.46,3.37-2.5s2.06-2.19,2.98-3.46s1.79-2.56,2.58-3.86c0.79-1.31,1.52-2.53,2.19-3.67
			c0.32-0.55,0.61-1.07,0.88-1.55c0.01-0.01,0.02-0.01,0.02-0.02c0.13-0.42,0.43-0.69,0.93-0.81c0.21-0.05,0.4-0.07,0.59-0.07
			c0.35,0,0.68,0.07,1,0.21c0.48,0.21,0.71,0.52,0.71,0.95c0,0.14-0.05,0.85-0.14,2.13c-0.1,1.28-0.16,2.69-0.19,4.25
			c-0.02,0.62-0.02,1.24-0.02,1.88c0,0.94,0.02,1.89,0.05,2.88c0.05,1.63,0.16,3.16,0.34,4.58c0.18,1.42,0.45,2.57,0.81,3.46
			c0.36,0.89,0.84,1.33,1.44,1.33c0.81,0,1.67-0.53,2.59-1.59s1.84-2.41,2.77-4.05c0.93-1.64,1.82-3.38,2.68-5.21
			c0.86-1.83,1.63-3.56,2.33-5.17c0.97-2.2,1.71-3.78,2.23-4.73c0.12-0.54,0.38-0.89,0.79-1.02c0.22-0.06,0.44-0.1,0.67-0.1
			c0.32,0,0.63,0.06,0.93,0.19c0.52,0.24,0.81,0.71,0.86,1.4c0,0.57,0.05,1.5,0.14,2.78c0.11,1.47,0.27,2.99,0.49,4.55
			c0.21,1.56,0.47,2.72,0.77,3.48c0.1-0.51,0.19-1.02,0.29-1.55c0.3-1.9,0.67-3.78,1.12-5.64c0.17-0.76,0.46-1.59,0.86-2.5
			c0.81-1.78,2.03-2.66,3.66-2.66c0.75,0,1.45,0.26,2.1,0.78s1.16,1.29,1.51,2.31c0.32,1.06,0.5,2.33,0.55,3.81
			c0.03,0.73,0.05,1.47,0.05,2.24c0,0.76-0.02,1.54-0.05,2.33c-0.02,0.79-0.02,1.56-0.02,2.31v1.12c0.02,1.11,0.09,2.1,0.23,2.97
			s0.36,1.57,0.69,2.08c0.33,0.52,0.8,0.77,1.44,0.77c0.84,0,1.74-0.53,2.7-1.58c0.96-1.05,1.93-2.39,2.91-4.02
			c0.98-1.63,1.93-3.33,2.83-5.11s1.72-3.44,2.45-4.96c0.85-1.79,1.51-3.12,1.99-3.97c0.31-1.23,0.81-2.38,1.52-3.46
			c1.26-1.91,3.07-2.87,5.43-2.87c1.2,0,2.29,0.34,3.26,1.03c0.97,0.69,1.45,1.74,1.45,3.15c0,1.2-0.48,2.18-1.45,2.93
			s-2.04,1.12-3.21,1.12c-1.65,0-2.98-0.39-4-1.17c-0.06,0.63-0.1,1.33-0.1,2.09c0,2.82,0.62,5.01,1.87,6.58s2.79,2.34,4.63,2.34
			c3.35,0,6.6-1.52,9.75-4.57c3.16-3.04,5.26-5.45,6.33-7.21c0,0,0,0,0,0c0.06-0.6,0.33-0.97,0.83-1.07
			c0.16-0.03,0.32-0.05,0.48-0.05c0.36,0,0.74,0.1,1.12,0.29c0.52,0.29,0.81,0.64,0.86,1.07c0.03,0.57,0.11,1.63,0.24,3.16
			s0.29,3.19,0.5,4.97s0.42,3.31,0.64,4.59c0.11-1.33,0.23-3.25,0.36-5.76c0.08-2.2,0.2-3.92,0.36-5.16
			c0.16-1.24,0.27-2.05,0.33-2.45c0.24-1.19,0.58-2.08,1.03-2.66c0.45-0.59,1.04-0.88,1.77-0.88c0.67,0,1.32,0.27,1.96,0.82
			c0.64,0.55,1.19,1.35,1.63,2.41c0.7,1.95,1.18,4.11,1.45,6.49c0.16-0.9,0.39-1.72,0.69-2.45c0.35-0.84,0.77-1.47,1.26-1.9
			c0.49-0.43,1.1-0.64,1.83-0.64c0.62,0,1.21,0.21,1.77,0.64c0.56,0.43,0.99,1.09,1.3,2c0.35,1.24,0.53,2.81,0.55,4.73
			c0,2.22-0.04,4.23-0.12,6.02c-0.06,1.54-0.1,2.98-0.12,4.33c0,1.95,0.13,3.52,0.38,4.71c0.22,1.01,0.66,1.52,1.31,1.52
			c0.78,0,1.64-0.61,2.59-1.84c0.95-1.23,1.93-2.79,2.93-4.7s1.97-3.92,2.93-6.06c0.95-2.14,1.83-4.16,2.64-6.06
			c1.2-2.92,2.12-4.94,2.73-6.06c0.01-0.01,0.02-0.02,0.03-0.03c0.48-0.99,1.11-1.84,1.92-2.54c1.05-0.9,2.39-1.37,4.04-1.4h0.14
			c1.03,0,1.9,0.34,2.62,1.02c0.33,0.33,0.61,0.76,0.83,1.28c0.03,0.06,0.05,0.13,0.05,0.19c0,0.05-0.02,0.1-0.05,0.17
			c-0.11,0.19-0.26,0.29-0.45,0.29c-0.21,0-0.35-0.1-0.43-0.29c-0.21-0.51-0.48-0.9-0.83-1.17c-0.35-0.27-0.81-0.4-1.38-0.4
			c-0.87,0-1.59,0.29-2.14,0.87c-0.55,0.58-0.99,1.3-1.31,2.16s-0.54,1.75-0.65,2.66c-0.12,0.91-0.18,1.69-0.18,2.34
			c0,0.32,0.05,0.88,0.14,1.69c0.1,0.81,0.27,1.55,0.54,2.24c0.26,0.68,0.63,1.05,1.11,1.09c0.43-0.08,0.85-0.7,1.27-1.87
			c0.42-1.17,0.8-2.47,1.13-3.91s0.58-2.61,0.74-3.5c0.08-0.4,0.16-0.69,0.24-0.88c0.08-0.19,0.21-0.37,0.4-0.55
			c0.19-0.19,0.43-0.31,0.71-0.36c0.16-0.03,0.31-0.05,0.45-0.05c0.35,0,0.67,0.1,0.98,0.29c0.43,0.25,0.64,0.67,0.64,1.26
			c0,1.16,0.04,2.53,0.11,4.13s0.23,3.14,0.49,4.63c0.17,1,0.41,1.89,0.71,2.68c0.3,0.78,0.67,1.41,1.12,1.89s0.99,0.71,1.64,0.71
			c0.89,0,1.78-0.41,2.69-1.22c0.9-0.82,1.79-1.85,2.66-3.1c0.87-1.25,1.69-2.57,2.45-3.95c0.76-1.38,1.44-2.66,2.05-3.83
			c0.54-1.06,0.99-1.91,1.36-2.54c0.1-0.16,0.23-0.24,0.4-0.24c0.08,0,0.16,0.02,0.24,0.07c0.16,0.1,0.24,0.23,0.24,0.4
			C238.23,101.81,238.2,101.89,238.16,101.97z"/>
	</g>
</g>
</svg>
